<svg width="32" height="32" viewBox="0 0 32 32" fill="none" xmlns="http://www.w3.org/2000/svg">
<g clip-path="url(#clip0_151_272)">
<path d="M25.6738 4H6.32617C5.04353 4 4 5.04353 4 6.32617V25.6738C4 26.9565 5.04353 28 6.32617 28H25.6738C26.9565 28 28 26.9565 28 25.6738V6.32617C28 5.04353 26.9565 4 25.6738 4ZM5.40625 25.6738V6.32617C5.40625 5.81894 5.81894 5.40625 6.32617 5.40625H17.2012C17.7084 5.40625 18.1211 5.81894 18.1211 6.32617V25.6738C18.1211 26.1811 17.7084 26.5938 17.2012 26.5938H6.32617C5.81894 26.5938 5.40625 26.1811 5.40625 25.6738ZM19.3373 26.5938C19.4594 26.3114 19.5273 26.0005 19.5273 25.6738V6.32617C19.5273 5.99955 19.4594 5.68858 19.3373 5.40625H20.0254C20.5326 5.40625 20.9453 5.81894 20.9453 6.32617V25.6738C20.9453 26.1811 20.5326 26.5938 20.0254 26.5938H19.3373ZM22.1615 26.5938C22.2836 26.3114 22.3516 26.0005 22.3516 25.6738V6.32617C22.3516 5.99955 22.2836 5.68858 22.1615 5.40625H22.8496C23.3568 5.40625 23.7695 5.81894 23.7695 6.32617V25.6738C23.7695 26.1811 23.3568 26.5938 22.8496 26.5938H22.1615ZM26.5938 25.6738C26.5938 26.1811 26.1811 26.5938 25.6738 26.5938H24.9858C25.1078 26.3114 25.1758 26.0005 25.1758 25.6738V6.32617C25.1758 5.99955 25.1078 5.68858 24.9858 5.40625H25.6738C26.1811 5.40625 26.5938 5.81894 26.5938 6.32617V25.6738Z" fill="#4D3C6A"/>
<path d="M11.0966 11.5413L9.68454 15.7776C9.63644 15.922 9.63644 16.078 9.68454 16.2223L11.0966 20.4587C11.1924 20.7458 11.4611 20.9394 11.7637 20.9394C12.0663 20.9394 12.335 20.7458 12.4307 20.4587L13.8428 16.2223C13.8909 16.078 13.8909 15.922 13.8428 15.7776L12.4307 11.5413C12.335 11.2542 12.0663 11.0605 11.7637 11.0605C11.4611 11.0605 11.1924 11.2542 11.0966 11.5413ZM12.4346 16L11.7637 18.0129L11.0928 16L11.7637 13.9871L12.4346 16Z" fill="#4D3C6A"/>
<path d="M16 9.71355C16.3883 9.71355 16.7031 9.39873 16.7031 9.01042V7.52734C16.7031 7.13903 16.3883 6.82422 16 6.82422C15.6117 6.82422 15.2969 7.13903 15.2969 7.52734V9.01042C15.2969 9.39873 15.6117 9.71355 16 9.71355Z" fill="#4D3C6A"/>
<path d="M7.52734 25.1758C7.91566 25.1758 8.23047 24.861 8.23047 24.4727V22.9896C8.23047 22.6013 7.91566 22.2865 7.52734 22.2865C7.13903 22.2865 6.82422 22.6013 6.82422 22.9896V24.4727C6.82422 24.861 7.13903 25.1758 7.52734 25.1758Z" fill="#4D3C6A"/>
</g>
<defs>
<clipPath id="clip0_151_272">
<rect width="24" height="24" fill="white" transform="translate(4 4)"/>
</clipPath>
</defs>
</svg>
